<svg version="1.1" id="Layer_1" xmlns="http://www.w3.org/2000/svg" xmlns:xlink="http://www.w3.org/1999/xlink" x="0px" y="0px"
	 width="100%" viewBox="0 0 512 512" enable-background="new 0 0 512 512" xml:space="preserve">
<path fill="#FFFFFF" opacity="1.000000" stroke="none" 
	d="
M345.000000,513.000000 
	C230.027939,513.000000 115.555870,513.000000 1.041900,513.000000 
	C1.041900,342.402924 1.041900,171.805817 1.041900,1.104355 
	C171.555405,1.104355 342.110901,1.104355 512.833191,1.104355 
	C512.833191,171.666534 512.833191,342.333252 512.833191,513.000000 
	C457.139069,513.000000 401.319550,513.000000 345.000000,513.000000 
M135.599564,358.194946 
	C139.075226,340.739258 142.527252,323.278809 146.038330,305.830261 
	C147.419434,298.966705 148.700485,291.990906 154.107147,286.872101 
	C163.408234,278.066223 172.484695,268.987366 182.212662,260.675262 
	C204.841537,241.339859 228.211197,222.856979 250.537872,203.185562 
	C289.236420,169.089386 327.375336,134.358002 365.740997,99.884163 
	C371.109406,95.060349 376.432587,90.186234 382.039337,85.097000 
	C381.065002,84.744591 380.788361,84.556709 380.511932,84.557045 
	C351.357819,84.592331 322.203186,84.579475 293.050598,84.815628 
	C290.859406,84.833382 288.230255,86.142609 286.565002,87.676765 
	C238.845627,131.640015 191.224823,175.710220 143.577118,219.751297 
	C142.666687,220.592804 141.624985,221.292313 139.535461,222.924301 
	C149.043930,176.074921 158.278656,130.574265 167.534424,84.969955 
	C155.402145,84.969955 143.982742,84.969955 132.738434,84.969955 
	C110.162895,193.001755 87.666550,300.654541 65.127975,408.509460 
	C78.233093,408.509460 90.904060,409.089813 103.497749,408.351654 
	C116.986443,407.561035 125.952682,400.325470 128.925552,388.742065 
	C131.445221,378.924438 133.256012,368.924896 135.599564,358.194946 
M454.477844,409.623840 
	C458.608215,409.623840 462.738586,409.623840 468.078888,409.623840 
	C429.754974,377.033813 392.672333,345.499329 355.117035,313.562927 
	C391.356262,274.555389 432.555908,243.283936 477.106720,215.981186 
	C470.752045,215.491013 464.607147,215.147049 458.511841,215.551163 
	C433.536560,217.207031 411.008728,226.674652 389.239044,238.127274 
	C356.796722,255.194550 327.599823,276.947388 300.314178,301.279083 
	C286.045685,314.002869 272.258179,327.266083 257.994080,340.526825 
	C259.291473,341.958252 260.312012,343.242065 261.489807,344.360260 
	C283.334137,365.100281 305.142578,385.879028 327.151520,406.443115 
	C329.081543,408.246490 332.347748,409.504700 335.000305,409.517090 
	C374.494202,409.701874 413.989227,409.633759 454.477844,409.623840 
M280.731110,293.232422 
	C304.178711,270.690582 329.198242,250.019608 355.562012,230.838226 
	C334.851074,230.363785 314.428925,230.242920 294.011108,230.486374 
	C290.723877,230.525574 287.045471,231.510025 284.242004,233.205338 
	C252.176239,252.596222 223.116714,275.802612 197.528854,303.197998 
	C188.129501,313.261322 178.607498,323.401031 170.653030,334.581329 
	C156.184280,354.917725 149.719025,378.514496 146.070358,402.933411 
	C145.788391,404.820496 146.033249,406.786285 146.033249,409.484924 
	C163.347839,409.484924 179.970627,409.538574 196.590927,409.359589 
	C197.655380,409.348145 199.247925,407.730133 199.671844,406.532745 
	C205.399399,390.354584 211.921844,374.529022 221.736542,360.359039 
	C238.664886,335.918671 259.001801,314.422272 280.731110,293.232422 
M160.922073,296.576294 
	C167.502609,303.075073 174.083160,309.573853 179.975479,315.392975 
	C194.003342,301.381470 207.941696,287.459381 221.087524,274.328888 
	C214.373688,267.160461 206.805573,259.079895 198.507446,250.219879 
	C183.900314,263.482697 169.498169,276.559418 154.934631,289.782654 
	C157.375427,292.601776 158.887314,294.347992 160.922073,296.576294 
z"/>
<path fill="#262695" opacity="1.000000" stroke="none" 
	d="
M135.490021,358.600403 
	C133.256012,368.924896 131.445221,378.924438 128.925552,388.742065 
	C125.952682,400.325470 116.986443,407.561035 103.497749,408.351654 
	C90.904060,409.089813 78.233093,408.509460 65.127975,408.509460 
	C87.666550,300.654541 110.162895,193.001755 132.738434,84.969955 
	C143.982742,84.969955 155.402145,84.969955 167.534424,84.969955 
	C158.278656,130.574265 149.043930,176.074921 139.535461,222.924301 
	C141.624985,221.292313 142.666687,220.592804 143.577118,219.751297 
	C191.224823,175.710220 238.845627,131.640015 286.565002,87.676765 
	C288.230255,86.142609 290.859406,84.833382 293.050598,84.815628 
	C322.203186,84.579475 351.357819,84.592331 380.511932,84.557045 
	C380.788361,84.556709 381.065002,84.744591 382.039337,85.097000 
	C376.432587,90.186234 371.109406,95.060349 365.740997,99.884163 
	C327.375336,134.358002 289.236420,169.089386 250.537872,203.185562 
	C228.211197,222.856979 204.841537,241.339859 182.212662,260.675262 
	C172.484695,268.987366 163.408234,278.066223 154.107147,286.872101 
	C148.700485,291.990906 147.419434,298.966705 146.038330,305.830261 
	C142.527252,323.278809 139.075226,340.739258 135.490021,358.600403 
z"/>
<path fill="#262695" opacity="1.000000" stroke="none" 
	d="
M453.980927,409.624603 
	C413.989227,409.633759 374.494202,409.701874 335.000305,409.517090 
	C332.347748,409.504700 329.081543,408.246490 327.151520,406.443115 
	C305.142578,385.879028 283.334137,365.100281 261.489807,344.360260 
	C260.312012,343.242065 259.291473,341.958252 257.994080,340.526825 
	C272.258179,327.266083 286.045685,314.002869 300.314178,301.279083 
	C327.599823,276.947388 356.796722,255.194550 389.239044,238.127274 
	C411.008728,226.674652 433.536560,217.207031 458.511841,215.551163 
	C464.607147,215.147049 470.752045,215.491013 477.106720,215.981186 
	C432.555908,243.283936 391.356262,274.555389 355.117035,313.562927 
	C392.672333,345.499329 429.754974,377.033813 468.078888,409.623840 
	C462.738586,409.623840 458.608215,409.623840 453.980927,409.624603 
z"/>
<path fill="#262695" opacity="1.000000" stroke="none" 
	d="
M280.480713,293.481934 
	C259.001801,314.422272 238.664886,335.918671 221.736542,360.359039 
	C211.921844,374.529022 205.399399,390.354584 199.671844,406.532745 
	C199.247925,407.730133 197.655380,409.348145 196.590927,409.359589 
	C179.970627,409.538574 163.347839,409.484924 146.033249,409.484924 
	C146.033249,406.786285 145.788391,404.820496 146.070358,402.933411 
	C149.719025,378.514496 156.184280,354.917725 170.653030,334.581329 
	C178.607498,323.401031 188.129501,313.261322 197.528854,303.197998 
	C223.116714,275.802612 252.176239,252.596222 284.242004,233.205338 
	C287.045471,231.510025 290.723877,230.525574 294.011108,230.486374 
	C314.428925,230.242920 334.851074,230.363785 355.562012,230.838226 
	C329.198242,250.019608 304.178711,270.690582 280.480713,293.481934 
z"/>
<path fill="#282896" opacity="1.000000" stroke="none" 
	d="
M160.660645,296.335266 
	C158.887314,294.347992 157.375427,292.601776 154.934631,289.782654 
	C169.498169,276.559418 183.900314,263.482697 198.507446,250.219879 
	C206.805573,259.079895 214.373688,267.160461 221.087524,274.328888 
	C207.941696,287.459381 194.003342,301.381470 179.975479,315.392975 
	C174.083160,309.573853 167.502609,303.075073 160.660645,296.335266 
z"/>
</svg>